<svg xmlns="http://www.w3.org/2000/svg" viewBox="0 0 100 100">
  <!-- Background circle -->
  <circle cx="50" cy="50" r="50" fill="#fdf8f0"/>
  
  <!-- Petals -->
  <ellipse cx="50" cy="25" rx="10" ry="18" fill="#f2c4ce" opacity="0.9" transform="rotate(0 50 50)"/>
  <ellipse cx="50" cy="25" rx="10" ry="18" fill="#e8a0b0" opacity="0.9" transform="rotate(45 50 50)"/>
  <ellipse cx="50" cy="25" rx="10" ry="18" fill="#f2c4ce" opacity="0.9" transform="rotate(90 50 50)"/>
  <ellipse cx="50" cy="25" rx="10" ry="18" fill="#e8a0b0" opacity="0.9" transform="rotate(135 50 50)"/>
  <ellipse cx="50" cy="25" rx="10" ry="18" fill="#f2c4ce" opacity="0.9" transform="rotate(180 50 50)"/>
  <ellipse cx="50" cy="25" rx="10" ry="18" fill="#e8a0b0" opacity="0.9" transform="rotate(225 50 50)"/>
  <ellipse cx="50" cy="25" rx="10" ry="18" fill="#f2c4ce" opacity="0.9" transform="rotate(270 50 50)"/>
  <ellipse cx="50" cy="25" rx="10" ry="18" fill="#e8a0b0" opacity="0.9" transform="rotate(315 50 50)"/>
  
  <!-- Center circle -->
  <circle cx="50" cy="50" r="14" fill="#c9a84c"/>
  <circle cx="50" cy="50" r="10" fill="#e8c84c"/>
  <circle cx="50" cy="50" r="6" fill="#f0d060"/>
  
  <!-- Center dots -->
  <circle cx="50" cy="44" r="1.5" fill="#c9a84c"/>
  <circle cx="55" cy="48" r="1.5" fill="#c9a84c"/>
  <circle cx="53" cy="54" r="1.5" fill="#c9a84c"/>
  <circle cx="47" cy="54" r="1.5" fill="#c9a84c"/>
  <circle cx="45" cy="48" r="1.5" fill="#c9a84c"/>
</svg>